<svg width="18" height="18" viewBox="0 0 18 18" fill="none" xmlns="http://www.w3.org/2000/svg">
<path d="M18 6.67966V1.75781C18 0.788552 17.2114 0 16.2422 0H11.3203C10.4715 0 9.76124 0.604861 9.5979 1.40624H8.40206C8.23876 0.604861 7.52854 0 6.67966 0H1.75781C0.788552 0 0 0.788552 0 1.75781V6.67966C0 7.52854 0.604861 8.23876 1.40624 8.4021V9.59793C0.604861 9.76127 0 10.4715 0 11.3204V16.2422C0 17.2115 0.788552 18 1.75781 18H6.67966C7.52854 18 8.23876 17.3952 8.4021 16.5938H9.59793C9.76127 17.3952 10.4715 18 11.3204 18H16.2422C17.2114 18 18 17.2115 18 16.2422V11.3204C18 10.4715 17.3951 9.76127 16.5938 9.59793V8.4021C17.3951 8.23876 18 7.52854 18 6.67966ZM11.3203 0.703122H16.2422C16.8237 0.703122 17.2968 1.17625 17.2968 1.75781V6.67966C17.2968 7.26121 16.8237 7.73434 16.2422 7.73434H11.3203C10.7388 7.73434 10.2657 7.26121 10.2657 6.67966V1.75781C10.2657 1.17625 10.7388 0.703122 11.3203 0.703122ZM0.703122 6.67966V1.75781C0.703122 1.17625 1.17625 0.703122 1.75781 0.703122H6.67966C7.26121 0.703122 7.73434 1.17625 7.73434 1.75781V6.67966C7.73434 7.26121 7.26121 7.73434 6.67966 7.73434H1.75781C1.17625 7.73434 0.703122 7.26121 0.703122 6.67966ZM6.67966 17.2969H1.75781C1.17625 17.2969 0.703122 16.8237 0.703122 16.2422V11.3203C0.703122 10.7388 1.17625 10.2657 1.75781 10.2657H2.63657C2.83073 10.2657 2.98813 10.1083 2.98813 9.91409C2.98813 9.71993 2.83073 9.56253 2.63657 9.56253H2.10937V8.43747H6.67966C7.64892 8.43747 8.43747 7.64892 8.43747 6.67966V2.10937H9.56253V6.67966C9.56253 7.64892 10.3511 8.43747 11.3203 8.43747H15.8906V9.56253H11.3203C10.3511 9.56253 9.56253 10.3511 9.56253 11.3203V15.8906H8.43747V11.3203C8.43747 10.3511 7.64892 9.56253 6.67966 9.56253H5.80065C5.60649 9.56253 5.44909 9.71993 5.44909 9.91409C5.44909 10.1083 5.60649 10.2657 5.80065 10.2657H6.67966C7.26121 10.2657 7.73434 10.7388 7.73434 11.3203V16.2422C7.73434 16.8237 7.26121 17.2969 6.67966 17.2969ZM17.2968 11.3203V16.2422C17.2968 16.8237 16.8237 17.2969 16.2422 17.2969H11.3203C10.7388 17.2969 10.2657 16.8237 10.2657 16.2422V11.3203C10.2657 10.7388 10.7388 10.2657 11.3203 10.2657H16.2422C16.8237 10.2657 17.2968 10.7388 17.2968 11.3203Z" fill="black"/>
<path d="M2.8125 5.27344H3.16406V5.625C3.16406 6.20655 3.6372 6.67969 4.21875 6.67969C4.8003 6.67969 5.27344 6.20655 5.27344 5.625V5.27344H5.625C6.20655 5.27344 6.67969 4.8003 6.67969 4.21875C6.67969 3.6372 6.20655 3.16406 5.625 3.16406H5.27344V2.8125C5.27344 2.23095 4.8003 1.75781 4.21875 1.75781C3.6372 1.75781 3.16406 2.23095 3.16406 2.8125V3.16406H2.8125C2.23095 3.16406 1.75781 3.6372 1.75781 4.21875C1.75781 4.8003 2.23095 5.27344 2.8125 5.27344ZM2.8125 3.86719H3.51562C3.70979 3.86719 3.86719 3.70979 3.86719 3.51562V2.8125C3.86719 2.61865 4.0249 2.46094 4.21875 2.46094C4.4126 2.46094 4.57031 2.61865 4.57031 2.8125V3.51562C4.57031 3.70979 4.72771 3.86719 4.92188 3.86719H5.625C5.81885 3.86719 5.97656 4.0249 5.97656 4.21875C5.97656 4.4126 5.81885 4.57031 5.625 4.57031H4.92188C4.72771 4.57031 4.57031 4.72771 4.57031 4.92188V5.625C4.57031 5.81885 4.4126 5.97656 4.21875 5.97656C4.0249 5.97656 3.86719 5.81885 3.86719 5.625V4.92188C3.86719 4.72771 3.70979 4.57031 3.51562 4.57031H2.8125C2.61865 4.57031 2.46094 4.4126 2.46094 4.21875C2.46094 4.0249 2.61865 3.86719 2.8125 3.86719Z" fill="black"/>
<path d="M5.62506 12.7266H2.81256C2.23101 12.7266 1.75787 13.1997 1.75787 13.7812C1.75787 14.3628 2.23101 14.8359 2.81256 14.8359H5.62506C6.20662 14.8359 6.67975 14.3628 6.67975 13.7812C6.67975 13.1997 6.20662 12.7266 5.62506 12.7266ZM5.62506 14.1328H2.81256C2.61871 14.1328 2.461 13.9751 2.461 13.7812C2.461 13.5874 2.61871 13.4297 2.81256 13.4297H5.62506C5.81891 13.4297 5.97662 13.5874 5.97662 13.7812C5.97662 13.9751 5.81891 14.1328 5.62506 14.1328Z" fill="black"/>
<path d="M15.5215 12.0411C15.1102 11.6299 14.4411 11.6299 14.0299 12.0411L13.7814 12.2897L13.5328 12.0411C13.1215 11.6299 12.4524 11.63 12.0412 12.0411C11.63 12.4524 11.63 13.1214 12.0412 13.5327L12.2898 13.7813L12.0412 14.0298C11.63 14.4411 11.63 15.1102 12.0412 15.5214C12.2469 15.727 12.5169 15.8298 12.787 15.8298C13.057 15.8298 13.3272 15.727 13.5328 15.5214L13.7814 15.2728L14.0299 15.5214C14.4411 15.9326 15.1102 15.9327 15.5215 15.5214C15.9327 15.1102 15.9327 14.4411 15.5215 14.0299L15.2729 13.7813L15.5215 13.5327C15.9327 13.1215 15.9327 12.4524 15.5215 12.0411ZM14.5271 14.0299L15.0243 14.5271C15.1613 14.6642 15.1613 14.8872 15.0243 15.0243C14.8873 15.1613 14.6642 15.1614 14.5271 15.0243L14.0299 14.5271C13.964 14.4612 13.8746 14.4241 13.7813 14.4241C13.6881 14.4241 13.5987 14.4612 13.5327 14.5271L13.0355 15.0243C12.9691 15.0907 12.8809 15.1272 12.7869 15.1272C12.693 15.1272 12.6047 15.0907 12.5384 15.0243C12.4013 14.8872 12.4013 14.6642 12.5384 14.5271L13.0355 14.0299C13.1728 13.8926 13.1728 13.6701 13.0355 13.5327L12.5384 13.0356C12.472 12.9691 12.4354 12.8809 12.4354 12.787C12.4354 12.6931 12.472 12.6048 12.5384 12.5384C12.6069 12.4698 12.6969 12.4356 12.7869 12.4356C12.877 12.4356 12.967 12.4699 13.0355 12.5384L13.5327 13.0356C13.5987 13.1015 13.6881 13.1385 13.7813 13.1385C13.8746 13.1385 13.964 13.1015 14.0299 13.0356L14.5271 12.5384C14.6641 12.4013 14.8872 12.4013 15.0243 12.5384C15.1613 12.6755 15.1613 12.8985 15.0243 13.0356L14.5271 13.5327C14.3898 13.67 14.3898 13.8926 14.5271 14.0299Z" fill="black"/>
<path d="M12.7869 6.26731C13.0569 6.26731 13.3271 6.16448 13.5327 5.95892L15.5214 3.97021C15.9326 3.55898 15.9326 2.88985 15.5214 2.47863C15.1101 2.06741 14.441 2.06744 14.0298 2.47863L12.0411 4.46738C11.6299 4.87861 11.6299 5.54774 12.0411 5.95896C12.2468 6.16455 12.5168 6.26735 12.7869 6.26731ZM12.5383 4.96453L14.527 2.97581C14.5955 2.90726 14.6856 2.87301 14.7756 2.87301C14.8656 2.87301 14.9556 2.90729 15.0242 2.97581C15.1612 3.11288 15.1612 3.33592 15.0242 3.47303L13.0354 5.46174C12.969 5.52815 12.8808 5.56472 12.7869 5.56472C12.693 5.56472 12.6047 5.52815 12.5383 5.46174C12.4012 5.32464 12.4012 5.1016 12.5383 4.96453Z" fill="black"/>
<path d="M4.21869 10.2657C4.41286 10.2657 4.57025 10.1083 4.57025 9.91412C4.57025 9.71996 4.41286 9.56256 4.21869 9.56256H4.21844C4.02427 9.56256 3.86702 9.71996 3.86702 9.91412C3.86702 10.1083 4.02452 10.2657 4.21869 10.2657Z" fill="black"/>
</svg>
