<svg width="17" height="18" viewBox="0 0 17 18" fill="none" xmlns="http://www.w3.org/2000/svg">
<path fill-rule="evenodd" clip-rule="evenodd" d="M12.0748 7.05784C12.0748 9.85669 9.81401 12.1157 7.0374 12.1157C4.26079 12.1157 2 9.85669 2 7.05784C2 4.259 4.26079 2 7.0374 2C9.81401 2 12.0748 4.259 12.0748 7.05784ZM10.81 13.0169C9.71968 13.7126 8.42547 14.1157 7.0374 14.1157C3.15075 14.1157 0 10.9558 0 7.05784C0 3.1599 3.15075 0 7.0374 0C10.924 0 14.0748 3.1599 14.0748 7.05784C14.0748 8.83972 13.4164 10.4674 12.3302 11.7094L16.796 16.2063L15.3867 17.6254L10.81 13.0169Z" fill="#4496F6"/>
</svg>
